name GIL08_free1Moments.mot
datacolumns 7
datarows 54
range 0.14999999 0.59166664
endheader

                time	          RHipMoment	          LHipMoment	         RKneeMoment	         LKneeMoment	        RAnkleMoment	        LAnkleMoment	
          0.14999999	       -199.86007690	        400.34536743	         17.57309532	        316.05480957	        -52.55134201	         54.75466156	
          0.15833332	       -207.84992981	        393.10815430	         30.66487503	        316.89950562	        -51.93795395	         57.35387421	
          0.16666666	       -237.80259705	        387.75933838	         53.10380936	        318.04553223	        -46.91693115	         59.25708008	
          0.17499998	       -273.89755249	        379.74710083	         73.07979584	        317.87442017	        -38.03161621	         60.27927017	
          0.18333332	       -289.68759155	        372.39932251	         80.27436829	        312.64364624	        -28.30625534	         60.95348740	
          0.19166665	       -280.53036499	        348.93557739	         80.02543640	        308.16934204	        -23.99614906	         61.55810547	
          0.19999999	       -215.62472534	        298.54547119	         66.43715668	        308.47476196	        -22.47840118	         62.97327805	
          0.20833331	       -132.95494080	        246.47598267	         45.41941833	        306.32559204	        -20.10044289	         65.61232758	
          0.21666665	        -68.05930328	        204.64720154	         23.47011757	        300.78317261	        -16.36319733	         71.11132813	
          0.22499999	        -12.54635334	        162.78497314	          3.29573154	        298.20849609	        -11.72837925	         79.08174896	
          0.23333332	         -1.83207762	        125.76013947	         -0.22556922	        296.26754761	         -7.20510864	         89.54126740	
          0.24166664	        -33.29151154	        103.51029205	          9.87408638	        291.71099854	         -3.73744059	        101.56677246	
          0.24999999	        -68.58462524	         97.22164154	         19.40495491	        283.44110107	         -2.47471499	        115.51495361	
          0.25833333	       -101.03641510	         87.40443420	         27.09618187	        275.75625610	         -3.52197742	        130.31289673	
          0.26666665	       -108.62274933	         55.92590714	         27.12212181	        270.85095215	         -5.57673788	        146.96145630	
          0.27499998	        -96.18158722	         21.66750336	         18.92661285	        263.56353760	         -7.46754789	        165.88938904	
          0.28333330	        -70.65859222	          4.30271673	          3.90057969	        249.47546387	         -8.64794064	        187.64393616	
          0.29166666	        -24.68895912	        -11.06142521	        -17.66812515	        232.56993103	         -9.16729259	        212.32859802	
          0.29999998	          1.62971246	        -33.98322678	        -30.22118568	        215.35473633	         -9.51782799	        240.51536560	
          0.30833334	         -7.69488573	        -49.14242935	        -30.30970955	        194.28657532	        -10.01797295	        273.38717651	
          0.31666666	        -32.83866119	        -49.16324234	        -25.77684212	        169.13432312	        -10.78831673	        309.25222778	
          0.32499999	        -63.07708740	        -53.75886154	        -19.06090927	        145.42858887	        -11.73141289	        347.41802979	
          0.33333331	        -77.19082642	        -72.73131561	        -16.77344513	        124.63301849	        -12.50201988	        388.40444946	
          0.34166664	        -73.27184296	        -86.00476074	        -19.34210968	        100.68291473	        -12.91507816	        431.58859253	
          0.34999996	        -63.15274811	        -76.23697662	        -23.07085419	         69.18759155	        -13.11341667	        475.81161499	
          0.35833332	        -34.79358673	        -58.37057114	        -33.80410767	         36.07543564	        -13.30703926	        521.69897461	
          0.36666664	          4.65436697	        -47.02965164	        -50.50358963	          4.71016741	        -13.48940086	        569.87719727	
          0.37500000	         32.04594421	        -47.56875992	        -64.30545044	        -23.46397018	        -13.49528694	        619.89135742	
          0.38333333	         14.76734066	        -56.39526367	        -61.20842743	        -49.44538498	        -13.42243767	        672.98547363	
          0.39166665	        -33.76188660	        -67.26369476	        -41.58309174	        -74.64341736	        -13.40451050	        728.06054688	
          0.39999998	       -158.90805054	        -87.62595367	          0.29656988	        -95.62096405	        -13.71683693	        784.37829590	
          0.40833333	        -47.83821487	       -114.73509216	        -43.44104004	       -113.91526031	        -14.78109741	        840.76538086	
          0.41666666	        -65.57546997	       -133.10102844	        -46.19964218	       -134.99461365	        -16.09906578	        897.16467285	
          0.42499998	        -11.95287228	       -143.91535950	        -70.51094818	       -157.25325012	        -17.39317513	        952.73852539	
          0.43333331	        -31.61058807	       -145.98439026	        -71.88488007	       -180.99760437	        -18.31004715	       1006.89526367	
          0.44166666	         53.11721802	       -142.85290527	       -106.33303070	       -204.86976624	        -18.46384811	       1059.15307617	
          0.44999999	         46.08756256	       -151.78524780	       -104.84457397	       -222.71339417	        -17.62156487	       1109.64562988	
          0.45833331	         92.09323883	       -169.40092468	       -111.21689606	       -235.98057556	        -16.00578880	       1157.45556641	
          0.46666664	        -29.22191238	       -197.05798340	        -59.50188065	       -244.79122925	        -14.14696789	       1203.15954590	
          0.47499999	         95.00323486	       -231.43742371	        -94.56420898	       -249.49691772	        -13.14513588	       1246.23547363	
          0.48333332	        159.65737915	       -267.72161865	       -116.51337433	       -250.67938232	        -12.70304489	       1285.76611328	
          0.49166664	        155.36701965	       -294.90298462	       -119.24023438	       -252.78312683	        -12.03539181	       1322.59155273	
          0.49999997	         49.08893585	       -337.42855835	        -95.21709442	       -239.26229858	        -11.19037628	       1355.15393066	
          0.50833333	        164.50718689	       -356.27398682	       -148.38313293	       -228.93051147	        -10.73537350	       1383.78344727	
          0.51666665	        342.92919922	       -362.83938599	       -221.78291321	       -221.54937744	        -10.22177219	       1409.72583008	
          0.52499998	        421.74234009	       -391.86529541	       -259.92385864	       -202.41728210	         -9.02499294	       1432.33093262	
          0.53333330	        423.64022827	       -437.73150635	       -267.18948364	       -173.84663391	         -7.36016798	       1451.46813965	
          0.54166663	        442.20812988	       -485.39773560	       -273.65847778	       -141.65277100	         -5.80224848	       1465.67504883	
          0.54999995	        443.35949707	       -525.73101807	       -269.48144531	       -110.36709595	         -4.29761744	       1474.64587402	
          0.55833328	        405.21691895	       -566.36468506	       -248.77497864	        -77.45685577	         -2.15855074	       1477.54943848	
          0.56666666	        218.50321960	       -600.39562988	       -178.44972229	        -43.14669418	          1.07050443	       1473.61230469	
          0.57499999	         98.80880737	       -606.33813477	       -131.73805237	        -13.42525005	          4.01351070	       1463.06042480	
          0.58333331	        108.37017822	       -604.23571777	       -130.23663330	         18.59444046	          4.45074177	       1445.24914551	
          0.59166664	         35.18185425	       -615.36029053	       -101.87759399	         56.28733063	         -2.64286804	       1420.51428223	
